<svg width="207" height="564" viewBox="0 0 207 564" fill="none" xmlns="http://www.w3.org/2000/svg">
<g clip-path="url(#clip0_4_3905)">
<mask id="mask0_4_3905" style="mask-type:alpha" maskUnits="userSpaceOnUse" x="0" y="0" width="207" height="564">
<path d="M30.695 2.23804H176.917C192.162 2.23804 204.52 14.5964 204.52 29.8412V534.159C204.52 549.403 192.162 561.762 176.917 561.762H30.695C15.4502 561.762 3.0918 549.403 3.0918 534.159V29.8412C3.0918 14.5964 15.4502 2.23804 30.695 2.23804Z" fill="#0A090F" stroke="url(#paint0_linear_4_3905)" stroke-width="4.47619"/>
</mask>
<g mask="url(#mask0_4_3905)">
<path d="M79.5675 343.361C83.9182 344.855 85.7399 346.685 85.9698 347.842C86.182 348.873 85.333 351.077 82.238 353.94C79.1784 355.842 75.9596 357.727 72.6878 359.629C64.4887 364.244 56.5693 369.344 48.9711 374.902C-11.1604 420.986 -43.03 482.68 -45.6651 558.258C-46.1425 571.966 -50.4225 576.162 -64.0052 576.198H-67.5423C-83.3181 576.233 -99.6244 576.269 -115.648 576.162C-122.209 576.11 -127.055 574.509 -129.584 571.86C-132.113 569.21 -133.298 564.855 -133.103 558.899C-130.097 470.037 -98.3688 394.795 -38.6087 334.721C-30.2492 326.317 -21.3473 318.221 -11.9032 310.434C-6.95117 306.344 -4.24529 306.113 1.30807 309.278C26.2594 323.111 52.4642 334.522 79.5675 343.361Z" fill="url(#paint1_linear_4_3905)"/>
<path d="M-67.2602 204.754L-63.5993 209.217C-56.2828 218.507 -48.4967 227.414 -40.2717 235.903C21.699 295.748 96.2445 327.271 181.295 329.636C187.857 329.795 192.348 328.622 195.055 325.973L195.161 325.867C197.849 323.163 199.176 318.558 199.211 311.802L199.228 311.322C199.299 293.828 199.335 275.657 199.228 257.985C199.07 247.157 194.1 242.162 183.152 241.823C112.869 239.974 54.0462 211.919 8.25787 158.457C-2.67319 145.38 -12.172 131.157 -20.0746 116.036C-23.2049 110.222 -25.1328 109.244 -27.6619 109.44C-30.1909 109.635 -30.7392 110.862 -32.7377 116.818C-41.9719 144.685 -53.686 171.659 -67.7378 197.412C-69.6831 200.932 -69.3118 202.23 -67.2602 204.754Z" fill="url(#paint2_linear_4_3905)"/>
<path d="M199.442 396.805C199.42 391.14 199.414 385.469 199.426 379.79C199.512 377.74 199.175 375.694 198.435 373.781C197.696 371.868 196.57 370.132 195.127 368.678C192.262 366.012 188.371 364.802 182.358 364.909C132.838 364.909 83.4241 386.35 46.9032 423.066C10.2937 459.867 -10.717 509.437 -10.6109 559.112C-10.6286 571.433 -6.03028 576.056 6.31434 576.126C24.9728 576.287 43.3306 576.251 60.8749 576.074C71.6631 575.895 76.1908 571.629 76.8276 560.641C80.4354 498.128 121.572 456.81 184.144 452.756C194.667 452.098 199.248 447.565 199.318 437.501C199.478 424.079 199.548 410.317 199.442 396.805Z" fill="url(#paint3_linear_4_3905)"/>
<path d="M-10.6651 13.5918C-9.26786 58.1287 4.84542 97.563 31.2149 130.721C70.0881 179.579 121.43 205.127 183.843 206.675C185.925 207.034 188.063 206.895 190.082 206.269C192.102 205.642 193.945 204.545 195.464 203.068C196.981 201.59 198.131 199.774 198.819 197.764C199.507 195.756 199.714 193.613 199.424 191.508C199.689 171.542 199.689 152.128 199.406 133.744C199.247 123.912 194.631 119.094 185.222 119.023C156.406 118.77 128.849 107.119 108.515 86.5913C88.1816 66.0637 76.708 38.3115 76.5787 9.3425C76.5787 -1.78729 68.9208 -4.29408 62.554 -4.36519C50.7243 -4.58645 38.7341 -4.58188 26.8913 -4.57731H26.8842L26.8798 -4.57727L26.8707 -4.57723C23.4939 -4.57591 20.129 -4.57464 16.7832 -4.57857L2.95298 -4.50744C1.12749 -4.53506 -0.684329 -4.18838 -2.37202 -3.48833C-4.05964 -2.7883 -5.58762 -1.74968 -6.86258 -0.43604C-9.83378 2.72865 -10.9657 6.78233 -10.6651 13.5918Z" fill="url(#paint4_linear_4_3905)"/>
<path d="M189.891 72.9746C175.442 84.2644 151.266 81.6151 134.871 66.8762C118.936 52.5639 112.852 35.7448 116.283 15.5121L116.354 15.0498L116.637 14.4453C124.419 -3.01391 137.294 -7.74316 146.703 -8.66771C163.522 -10.2856 182.675 -0.809186 193.305 14.392C208.425 35.9938 207.065 59.5157 189.891 72.9746Z" fill="url(#paint5_linear_4_3905)"/>
<path d="M134.871 504.529C120.528 518.949 114.055 533.918 115.417 548.978C116.09 557.187 119.688 564.876 125.55 570.631C131.411 576.387 139.142 579.822 147.322 580.305C154.759 580.481 162.155 579.132 169.056 576.339C175.956 573.546 182.219 569.367 187.459 564.06C192.699 558.751 196.808 552.424 199.534 545.467C202.261 538.508 203.548 531.064 203.315 523.589C202.79 515.374 199.307 507.631 193.516 501.809C187.726 495.989 180.024 492.487 171.852 491.96C165.155 491.336 158.405 492.133 152.034 494.298C145.664 496.465 139.817 499.949 134.871 504.529Z" fill="url(#paint6_linear_4_3905)"/>
</g>
</g>
<defs>
<linearGradient id="paint0_linear_4_3905" x1="106.314" y1="505.007" x2="93.2666" y2="22.4212" gradientUnits="userSpaceOnUse">
<stop stop-color="#D95DB0"/>
<stop offset="1" stop-color="#3344DC"/>
</linearGradient>
<linearGradient id="paint1_linear_4_3905" x1="51.9905" y1="522.389" x2="314.171" y2="112.516" gradientUnits="userSpaceOnUse">
<stop stop-color="#D95DB0"/>
<stop offset="1" stop-color="#3344DC"/>
</linearGradient>
<linearGradient id="paint2_linear_4_3905" x1="51.9897" y1="522.389" x2="314.17" y2="112.516" gradientUnits="userSpaceOnUse">
<stop stop-color="#D95DB0"/>
<stop offset="1" stop-color="#3344DC"/>
</linearGradient>
<linearGradient id="paint3_linear_4_3905" x1="51.9905" y1="522.389" x2="314.171" y2="112.516" gradientUnits="userSpaceOnUse">
<stop stop-color="#D95DB0"/>
<stop offset="1" stop-color="#3344DC"/>
</linearGradient>
<linearGradient id="paint4_linear_4_3905" x1="51.9899" y1="522.389" x2="314.171" y2="112.516" gradientUnits="userSpaceOnUse">
<stop stop-color="#D95DB0"/>
<stop offset="1" stop-color="#3344DC"/>
</linearGradient>
<linearGradient id="paint5_linear_4_3905" x1="51.9902" y1="522.389" x2="314.171" y2="112.516" gradientUnits="userSpaceOnUse">
<stop stop-color="#D95DB0"/>
<stop offset="1" stop-color="#3344DC"/>
</linearGradient>
<linearGradient id="paint6_linear_4_3905" x1="51.9899" y1="522.389" x2="314.171" y2="112.516" gradientUnits="userSpaceOnUse">
<stop stop-color="#D95DB0"/>
<stop offset="1" stop-color="#3344DC"/>
</linearGradient>
<clipPath id="clip0_4_3905">
<rect width="205.905" height="564" fill="white" transform="translate(0.853516)"/>
</clipPath>
</defs>
</svg>
