<svg xmlns="http://www.w3.org/2000/svg" width="713.74209" height="454.87759" viewBox="0 0 713.74209 454.87759" xmlns:xlink="http://www.w3.org/1999/xlink"><path d="M462.28362,402.61243c66.57014-23.55656,140.83585-20.85274,219.7317-2.349,9.90448,2.32293,19.40047-5.13488,19.40047-15.30812V86.84158c0-7.23933-4.93548-13.56904-11.9676-15.28866-83.22864-20.35257-160.96879-24.09712-229.47889,.08754-5.01901,1.77175-10.59015,.81182-14.82528-2.41205C387.41274,25.28221,328.32862,3.24799,267.48026,9.7905c-7.96013,.85589-13.96422,7.63971-13.96422,15.64572V326.80114c0,8.06918,6.10533,14.8162,14.13123,15.65093,65.49395,6.81166,125.67579,27.45575,181.64484,59.06964,3.963,2.23848,8.70074,2.60906,12.99152,1.09072Z" fill="#0C2D48"/><path d="M460.14589,385.895c-4.53369,0-8.99902-1.24609-12.93408-3.68945-47.00439-29.19238-98.21484-46.24609-152.20752-50.6875-12.6582-1.04199-22.57422-11.83887-22.57422-24.58105V49.52196c0-13.21191,10.24609-24.0376,23.32666-24.64551,39.31055-1.83301,87.04199,15.69775,150.20508,55.15039,5.34277,3.33643,11.83984,4.32715,17.82617,2.72168,60.02832-16.11328,125.09814-16.58398,198.93164-1.43896,11.4624,2.35156,19.78223,12.52539,19.78223,24.19189v251.26074c0,7.58203-3.41016,14.625-9.35645,19.32129-5.99023,4.73145-13.69775,6.42773-21.14746,4.6543-69.8457-16.62402-129.82178-15.42285-183.35889,3.6748h0c-2.78027,.99219-5.65088,1.48242-8.49316,1.48242ZM301.36855,26.74754c-1.86084,0-3.69629,.04199-5.51904,.12695-12.01074,.55811-21.41943,10.50586-21.41943,22.64746V306.937c0,11.70898,9.10938,21.63086,20.73828,22.58691,54.31201,4.46875,105.82178,21.62109,153.09863,50.98242,5.88232,3.6543,13.06299,4.39062,19.7002,2.02344l.33594,.94141-.33594-.94141c53.91064-19.23242,114.25977-20.45508,184.49365-3.7373,6.85107,1.62988,13.9375,.07227,19.44482-4.27832,5.46289-4.31543,8.59619-10.78516,8.59619-17.75195V105.50145c0-10.72119-7.64746-20.07129-18.18457-22.23291-73.521-15.08203-138.29053-14.62012-198.01074,1.41162-6.52197,1.74902-13.59277,.67236-19.4043-2.95703-59.85791-37.38818-105.6958-54.97559-143.53369-54.97559Z" fill="#fff"/><rect x="454.99619" y="84.24502" width="2.00008" height="301.18961" transform="translate(-2.15024 4.22302) rotate(-.52937)" fill="#fff"/><rect x="360.62999" y="14.73326" width="1.99959" height="147.49977" transform="translate(164.02606 404.01148) rotate(-71.69155)" fill="#3f3d56"/><rect x="360.62999" y="51.80113" width="1.99959" height="147.49977" transform="translate(128.8346 429.43513) rotate(-71.69155)" fill="#3f3d56"/><rect x="360.62999" y="88.86851" width="1.99959" height="147.49977" transform="translate(93.6436 454.85844) rotate(-71.69155)" fill="#3f3d56"/><rect x="360.62999" y="125.93589" width="1.99959" height="147.49977" transform="translate(58.4526 480.28175) rotate(-71.69155)" fill="#3f3d56"/><rect x="489.30703" y="112.70995" width="167.8335" height="2" fill="#3f3d56"/><rect x="489.30703" y="147.71825" width="167.8335" height="2" fill="#3f3d56"/><rect x="489.30703" y="182.72606" width="167.8335" height="2" fill="#3f3d56"/><rect x="489.30703" y="217.73485" width="167.8335" height="2" fill="#3f3d56"/><rect x="489.30703" y="252.74266" width="167.8335" height="2" fill="#3f3d56"/><rect x="489.30703" y="287.75145" width="167.8335" height="2" fill="#3f3d56"/><path d="M54.25887,437.54464c-2.06592,.12937-3.20768-2.43737-1.64468-3.93333l.1555-.61819c-.02047-.04951-.04105-.09897-.06178-.14839-2.08924-4.9818-9.16992-4.94742-11.24139,.04177-1.83859,4.42817-4.17942,8.86389-4.75579,13.54594-.25838,2.0668-.14213,4.17236,.31648,6.20047-4.30807-9.41059-6.57515-19.68661-6.57515-30.02077,0-2.59652,.14213-5.19301,.43275-7.78295,.239-2.11854,.56839-4.2241,.99471-6.31034,2.30575-11.2772,7.29852-22.01825,14.50012-30.98962,3.46197-1.89248,6.34906-4.85065,8.09295-8.39652,.62649-1.27891,1.11739-2.65462,1.34991-4.05618-.39398,.05168-1.48556-5.94866-1.18841-6.3168-.54906-.83317-1.53178-1.24733-2.13144-2.06034-2.98232-4.04341-7.0912-3.33741-9.23621,2.15727-4.58224,2.31266-4.62659,6.14806-1.81495,9.83683,1.78878,2.34682,2.03456,5.52233,3.60408,8.03478-.16151,.20671-.32944,.40695-.4909,.61366-2.96106,3.79788-5.52208,7.88002-7.68104,12.16859,.61017-4.76621-.29067-10.50822-1.82641-14.20959-1.74819-4.21732-5.02491-7.76915-7.91045-11.41501-3.46601-4.37924-10.57337-2.46806-11.18401,3.08332-.00591,.05375-.01166,.10745-.01731,.1612,.4286,.24178,.84849,.49867,1.25864,.76992,2.33949,1.54723,1.53096,5.17386-1.24107,5.60174l-.06277,.00967c.15503,1.54366,.41984,3.07444,.80734,4.57937-3.70179,14.31579,4.29011,19.5299,15.70147,19.76412,.25191,.12916,.49738,.25832,.74929,.38109-1.15617,3.25525-2.07982,6.59447-2.76441,9.97891-.61359,2.99043-1.03991,6.01317-1.27885,9.04888-.29715,3.83006-.27129,7.67959,.05168,11.50323l-.01939-.13562c-.82024-4.21115-3.10671-8.14462-6.4266-10.87028-4.94561-4.06264-11.93282-5.55869-17.26826-8.82425-2.56833-1.57196-5.85945,.45945-5.41121,3.43708l.02182,.14261c.79443,.32289,1.56947,.69755,2.31871,1.11733,.4286,.24184,.84848,.49867,1.25864,.76992,2.33949,1.54729,1.53096,5.17392-1.24107,5.6018l-.06282,.00965c-.0452,.00646-.08397,.01295-.12911,.01944,1.36282,3.23581,3.26168,6.23922,5.63854,8.82922,2.31463,12.49713,12.25603,13.68282,22.89022,10.04354h.00648c1.16259,5.06378,2.86128,10.01127,5.0444,14.72621h18.02019c.06463-.20022,.12274-.40692,.18089-.60717-1.6664,.10341-3.34571,.00649-4.98629-.29702,1.33701-1.64059,2.67396-3.29409,4.01097-4.93462,.03229-.0323,.05816-.0646,.08397-.09689,.67817-.8396,1.36282-1.67283,2.04099-2.51246l.00036-.00102c.04245-2.57755-.26652-5.14662-.87876-7.63984l-.00057-.00035Z" fill="#00B4FF"/><path d="M255.81023,453.68759c0,.66003-.53003,1.19-1.19006,1.19H1.33018c-.65997,0-1.19-.52997-1.19-1.19,0-.65997,.53003-1.19,1.19-1.19H254.62016c.66003,0,1.19006,.53003,1.19006,1.19Z" fill="#00B4FF"/><g><circle cx="664.18984" cy="367.42821" r="23" fill="#000"/><path d="M674.96059,366.56218l-14.27069-8.24048c-.66669-.38495-1.50006,.09619-1.50006,.86603v7.24048h-4.28082c-.55231,0-1,.44769-1,1,0,.55225,.44769,1,1,1h4.28082v7.24048c0,.76984,.83337,1.25092,1.50006,.86597l14.27069-8.24048c.66656-.38489,.66656-1.34705,0-1.73199Z" fill="#00B4FF"/></g><g><path d="M336.66835,302.59537c.8958-10.24959,5.15132-20.04124,11.96184-27.74667,6.63443-7.5062,15.70252-12.65525,25.48162-14.75293,5.45895-1.17098,11.11392-1.39948,16.64225-.61069,1.32338,.18882,1.2881,2.28999-.0493,2.09917-9.40895-1.34249-19.1338,.29777-27.58827,4.64234-8.66574,4.45315-15.60153,11.69619-19.88606,20.43025-2.45018,4.9947-3.97856,10.44586-4.46292,15.98783-.11725,1.3415-2.2171,1.30008-2.09917-.0493h0Z" fill="#fff"/><path d="M388.42593,251.05747l16.16239,7.97413c.58787,.29004,.68444,1.24748,.18494,1.66038l-15.30037,12.64762c-1.03554,.856-2.49312-.65649-1.44947-1.5192l15.30037-12.64762,.18494,1.66038-16.16239-7.97413c-1.21371-.59881-.12439-2.39558,1.0796-1.80156h0Z" fill="#fff"/></g></svg>