<svg xmlns="http://www.w3.org/2000/svg" width="713.74209" height="454.87759" viewBox="0 0 713.74209 454.87759" xmlns:xlink="http://www.w3.org/1999/xlink"><path d="M462.28362,402.61243c66.57014-23.55656,140.83585-20.85274,219.7317-2.349,9.90448,2.32293,19.40047-5.13488,19.40047-15.30812V86.84158c0-7.23933-4.93548-13.56904-11.9676-15.28866-83.22864-20.35257-160.96879-24.09712-229.47889,.08754-5.01901,1.77175-10.59015,.81182-14.82528-2.41205C387.41274,25.28221,328.32862,3.24799,267.48026,9.7905c-7.96013,.85589-13.96422,7.63971-13.96422,15.64572V326.80114c0,8.06918,6.10533,14.8162,14.13123,15.65093,65.49395,6.81166,125.67579,27.45575,181.64484,59.06964,3.963,2.23848,8.70074,2.60906,12.99152,1.09072Z" fill="#0C2D48"/><path d="M460.14589,385.895c-4.53369,0-8.99902-1.24609-12.93408-3.68945-47.00439-29.19238-98.21484-46.24609-152.20752-50.6875-12.6582-1.04199-22.57422-11.83887-22.57422-24.58105V49.52196c0-13.21191,10.24609-24.0376,23.32666-24.64551,39.31055-1.83301,87.04199,15.69775,150.20508,55.15039,5.34277,3.33643,11.83984,4.32715,17.82617,2.72168,60.02832-16.11328,125.09814-16.58398,198.93164-1.43896,11.4624,2.35156,19.78223,12.52539,19.78223,24.19189v251.26074c0,7.58203-3.41016,14.625-9.35645,19.32129-5.99023,4.73145-13.69775,6.42773-21.14746,4.6543-69.8457-16.62402-129.82178-15.42285-183.35889,3.6748h0c-2.78027,.99219-5.65088,1.48242-8.49316,1.48242ZM301.36855,26.74754c-1.86084,0-3.69629,.04199-5.51904,.12695-12.01074,.55811-21.41943,10.50586-21.41943,22.64746V306.937c0,11.70898,9.10938,21.63086,20.73828,22.58691,54.31201,4.46875,105.82178,21.62109,153.09863,50.98242,5.88232,3.6543,13.06299,4.39062,19.7002,2.02344l.33594,.94141-.33594-.94141c53.91064-19.23242,114.25977-20.45508,184.49365-3.7373,6.85107,1.62988,13.9375,.07227,19.44482-4.27832,5.46289-4.31543,8.59619-10.78516,8.59619-17.75195V105.50145c0-10.72119-7.64746-20.07129-18.18457-22.23291-73.521-15.08203-138.29053-14.62012-198.01074,1.41162-6.52197,1.74902-13.59277,.67236-19.4043-2.95703-59.85791-37.38818-105.6958-54.97559-143.53369-54.97559Z" fill="#fff"/><rect x="454.99619" y="84.24502" width="2.00008" height="301.18961" transform="translate(-2.15024 4.22302) rotate(-.52937)" fill="#fff"/><rect x="360.62999" y="14.73326" width="1.99959" height="147.49977" transform="translate(164.02606 404.01148) rotate(-71.69155)" fill="#3f3d56"/><rect x="360.62999" y="51.80113" width="1.99959" height="147.49977" transform="translate(128.8346 429.43513) rotate(-71.69155)" fill="#3f3d56"/><rect x="360.62999" y="88.86851" width="1.99959" height="147.49977" transform="translate(93.6436 454.85844) rotate(-71.69155)" fill="#3f3d56"/><rect x="360.62999" y="125.93589" width="1.99959" height="147.49977" transform="translate(58.4526 480.28175) rotate(-71.69155)" fill="#3f3d56"/><rect x="489.30703" y="112.70995" width="167.8335" height="2" fill="#3f3d56"/><rect x="489.30703" y="147.71825" width="167.8335" height="2" fill="#3f3d56"/><rect x="489.30703" y="182.72606" width="167.8335" height="2" fill="#3f3d56"/><rect x="489.30703" y="217.73485" width="167.8335" height="2" fill="#3f3d56"/><rect x="489.30703" y="252.74266" width="167.8335" height="2" fill="#3f3d56"/><rect x="489.30703" y="287.75145" width="167.8335" height="2" fill="#3f3d56"/><g><circle cx="664.18984" cy="367.42821" r="23" fill="#000"/><path d="M674.96059,366.56218l-14.27069-8.24048c-.66669-.38495-1.50006,.09619-1.50006,.86603v7.24048h-4.28082c-.55231,0-1,.44769-1,1,0,.55225,.44769,1,1,1h4.28082v7.24048c0,.76984,.83337,1.25092,1.50006,.86597l14.27069-8.24048c.66656-.38489,.66656-1.34705,0-1.73199Z" fill="#00B4FF"/></g></svg>